<?xml version="1.0" standalone="no"?>
<!DOCTYPE svg PUBLIC "-//W3C//DTD SVG 1.1//EN" "http://www.w3.org/Graphics/SVG/1.1/DTD/svg11.dtd">
<svg xmlns="http://www.w3.org/2000/svg" id="Layer_1" version="1.1" viewBox="0 0 124 150" width="124" height="150">
  <!-- Generator: Adobe Illustrator 29.8.1, SVG Export Plug-In . SVG Version: 2.1.1 Build 2)  -->
  <defs>
    <style>
      .st0 {
        fill: #bdbec4;
      }
    </style>
  </defs>
  <path class="st0" d="M5,39c0,1.6,0,3.2,0,4.8v-5.8c0,.3,0,.7,0,1Z"/>
  <path class="st0" d="M119,39c0-.3,0-.7,0-1v-17.9c-1.7-1.2-3.6-2.2-5.6-2.9-.5-.2-.9-.3-1.4-.5-8.3-2.9-17.8-2.1-27.5,2.3-.8.3-1.5.7-2.3,1.1l-1,.5-9.4-9.4-6.9-6.9h-5.7l-6.9,6.9-9.4,9.4-1-.5c-.8-.4-1.5-.8-2.3-1.1-5.9-2.6-11.7-4-17.2-4s-7,.6-10.3,1.7c-.5.2-.9.3-1.4.5-2,.8-3.8,1.8-5.6,2.9v17.9h0s0,0,0,0v5.8h0s0,0,0,0v47.8c1.7,2,3.5,4,5.5,6l1.4,1.4,40.2,40.2,6.9,6.9h5.7l6.9-6.9,40.2-40.2,1.4-1.4c2-2,3.8-4,5.5-6v-47.8c.1-1.6.2-3.2,0-4.8ZM62,11.2l13.3,13.3-1.3,1.1c-1.6,1.3-3,2.7-4.4,4.3h0c0,0-7.6,7.6-7.6,7.6l-7.6-7.6c-1.3-1.5-2.8-2.9-4.4-4.3l-1.3-1.1,13.3-13.3ZM27,22.8c.5,0,1.1.2,1.6.3,7.8,1.5,15,5.6,20.4,11.6,3.1,3,6.1,6.1,9.2,9.1l3.7,3.7,3.6-3.6c3.1-3.1,6.2-6.1,9.3-9.2,1.1-1.2,2.2-2.3,3.4-3.4.8-.7,1.6-1.4,2.5-2,4.7-3.4,10.2-5.7,16-6.6l2-.3-.2,1.6c-.2,1.2-.4,2.4-.7,3.5-.1.6-.3,1.2-.5,1.7-.8,2.9-2,5.6-3.5,8.2-.5.9-1.1,1.8-1.7,2.7-1.5,2.2-3.3,4.1-5.2,5.9-.8.7-1.6,1.4-2.4,2-1.2,1-2.5,1.8-3.9,2.6s-3.7,2-5.7,2.7l-2.3.8v30.6h-21.4v-30.6l-2.3-.8c-7.1-2.6-13.1-7.3-17.4-13.6-3.2-4.6-5.3-9.9-6.1-15.4l-.3-2,2,.3ZM23.7,83.7c-.5,2-.8,4.1-1,6.1-.1,1.4-.2,2.8-.1,4.1,0,.7,0,1.4,0,2.1l.3,4.1-7.5-7.5c-1.1-1.1-2.3-2.3-3.5-3.7v-26.1c2.3,3.7,4.9,7.1,7.6,10.2,1.1,1.2,2.2,2.4,3.3,3.5.5.6,1.1,1.1,1.6,1.6l.7.7-.3.9c-.5,1.3-.9,2.6-1.2,4ZM27.2,71c-4.8-5-10.2-11.8-13.1-19.4-.5-1.3-.9-2.5-1.2-3.8-.3-1.3-.6-2.6-.7-3.9-.2-1.5-.2-2.9-.1-4.4,0-.5,0-1,.1-1.4.5-3.9,2-7.6,4.5-10.7l2-2.5.7,3.1c.2.7.3,1.4.5,2.1.4,1.4.8,2.7,1.3,4,.5,1.3,1.1,2.6,1.7,3.9.9,1.9,2,3.7,3.3,5.5.9,1.3,1.9,2.6,3,3.8,1.6,1.8,3.3,3.5,5.2,5.1.6.5,1.3,1,1.9,1.5,1.3,1,2.7,1.8,4.1,2.7l1.7,1-1.4,1.4c-.7.7-1.5,1.5-2.2,2.2-.4.4-.8.8-1.2,1.2-2.7,2.7-5.5,5.5-7.5,8.5l-1.1,1.5-1.3-1.3ZM38.6,115.8c-2.1-2.2-3.9-4.7-5.4-7.4-.2-.4-.5-.9-.7-1.4-2-4.1-3.1-8.6-3.2-13.2,0-.8,0-1.6,0-2.3,0-2.3.4-4.4.9-6.3.3-1.3.7-2.5,1.2-3.7.2-.6.5-1.1.7-1.7,2.3-4.9,5.8-8.8,9.5-12.5l2.6-2.6v21.8l12.7,12.7-17.5,17.5-.9-.9ZM62,139.1l-17.5-17.5,17.5-17.5,17.5,17.5-17.5,17.5ZM92.8,102.8c-.5,1.4-1,2.9-1.7,4.2-1.3,2.7-3,5.3-5,7.6-.3.4-.7.8-1,1.1l-.9.9-17.5-17.5,12.7-12.7v-21.8l2.6,2.6c2.9,2.9,5.6,5.9,7.8,9.4,1.9,3,3.3,6.4,4,10.5.4,2,.5,4.2.5,6.6,0,3.1-.6,6.1-1.5,9ZM111.9,89c-1.2,1.4-2.4,2.6-3.5,3.7l-7.5,7.5.3-4.1c.3-3.4,0-6.9-.6-10.3-.3-1.4-.6-2.7-1-4-.2-.7-.4-1.3-.6-2l-.3-.9.7-.7c1.1-1,2.1-2.1,3.2-3.3,1.1-1.2,2.2-2.4,3.2-3.7,2.1-2.6,4.2-5.3,6-8.3v26.1ZM111.9,43.9c-.2,2-.7,3.9-1.3,5.8-.4,1.3-.9,2.5-1.5,3.8-.8,1.9-1.8,3.6-2.8,5.4-2.8,4.6-6.3,8.8-9.5,12.1l-1.3,1.3-1.1-1.5c-.6-.9-1.2-1.7-1.9-2.5-.3-.4-.7-.8-1.1-1.2-1.8-2-3.8-4-5.7-5.9-.8-.7-1.5-1.5-2.2-2.2l-1.4-1.4,1.7-1c1.4-.8,2.8-1.7,4.1-2.7,1.3-1,2.6-2,3.7-3.1,2.4-2.2,4.5-4.6,6.4-7.3,3.3-4.7,5.6-9.9,6.8-15.5l.7-3.1,2,2.5c2.5,3.1,4,6.7,4.5,10.7,0,.5.1.9.1,1.4,0,.7,0,1.5,0,2.2,0,.7,0,1.5-.2,2.2Z"/>
</svg>